<svg xmlns="http://www.w3.org/2000/svg" xml:space="preserve" viewBox="0 0 1038 320"><linearGradient id="a" x1="9.4" x2="321.6" y1="838" y2="838" gradientTransform="translate(0 -678)" gradientUnits="userSpaceOnUse"><stop offset="0" style="stop-color:#333"/><stop
        offset="1" style="stop-color:#000"/></linearGradient>
    <path d="M165.5 3.9c86.2 0 156.1 69.9 156.1 156.1 0 86.2-69.9 156.1-156.1 156.1C79.3 316.1 9.4 246.2 9.4 160 9.4 73.8 79.3 3.9 165.5 3.9z"
          style="fill:url(#a)"/>
    <path d="M165.5 2.9C78.8 2.9 8.4 73.2 8.4 160s70.3 157.1 157.1 157.1S322.6 246.8 322.6 160 252.3 2.9 165.5 2.9zm0 296.9c-77.2 0-139.8-62.6-139.8-139.8S88.3 20.2 165.5 20.2 305.3 82.8 305.3 160s-62.6 139.8-139.8 139.8z"
          style="fill:#8dc641"/>
    <path d="m220.4 124.3-35 51.9h35v-51.9zm13.2-21v73H249v13.2h-15.4v27.3h-13.3v-27.3h-49.5v-14.2l49.9-71.9 12.9-.1zm-77.4 100.2v13.2H82v-.4c.7-12.4 3.9-21.5 10.1-29 5-6.2 11.1-10.8 23.6-18.6 0 0 4.4-2.8 5.7-3.6 6.7-4.3 11-7.7 14.5-11.6 4.3-5 6.5-10.4 6.5-16.8 0-12.4-8.8-20.9-21.4-20.9-14.7 0-22.2 11.2-22.6 27.9v.3H85.2v-.3l-.1-3c0-22.4 14.6-37.4 36.6-37.4 21.5 0 35.5 13 35.5 33.1 0 10.3-3.7 18.6-10.8 25.9-5.3 5.6-10.8 9.3-23.1 16.8-.2.1-.3.2-.5.3-.6.3-3.3 1.9-4 2.4-5.9 3.5-9.5 6-12.7 9-3.9 3.7-6.5 7.8-7.7 12.6h57.8v.1z"
          style="fill:#fff"/>
    <path d="M403.8 96.7h52.3c13 0 23.2 3.1 30.7 9.2 7.5 6.2 11.3 15.3 11.3 27.5 0 11.5-3.5 20.6-10.5 27.3s-16.5 10.1-28.6 10.1h-34v46.4h-21.2V96.7zm21.2 17.7v39.5h29.5c15.4 0 23-6.6 23-19.8 0-13.1-8.3-19.6-24.9-19.6l-27.6-.1zM560.9 128.2v18.5c-3.4-.3-5.6-.5-6.8-.5-16.8 0-25.2 10.9-25.2 32.7v38.4h-19.1v-87.4h18.1v17.4c6.2-13 16-19.5 29.3-19.5l3.7.4zM592.4 96.2v19h-19.3v-19h19.3zm0 33.7v87.4h-19.3v-87.4h19.3zM606.1 129.9h21l22.4 67.2 21.5-67.2h20l-31.3 87.6H638l-31.9-87.6zM697.6 156.9c2-19.8 14.8-29.6 38.3-29.6 10.9 0 19.7 2.1 26.2 6.4s9.7 11 9.7 20V198c0 2.5.3 4.2.9 5.1.6.9 1.8 1.4 3.6 1.4 1.4 0 2.8-.1 4.4-.3v13.6c-5 1.2-9.1 1.9-12.5 1.9-8.2 0-13-3.5-14.2-10.5-7.3 7-17.6 10.5-30.7 10.5-9 0-16.2-2.3-21.5-7s-8-11-8-19.1c0-2.5.3-4.8.8-6.9.6-2.1 1.2-4 2-5.6.7-1.6 1.9-3 3.6-4.4 1.6-1.4 3-2.5 4.1-3.4s2.8-1.7 5.3-2.5l5.4-1.8c1.2-.4 3.2-.8 6.2-1.3 2.9-.4 4.9-.8 5.8-.9 1-.2 3-.4 6-.8 6.9-.9 11.6-1.7 14.1-2.3s4.2-1.6 5.1-2.8c.8-.9 1.2-3 1.2-6.3 0-8.8-6-13.2-18-13.2-6.3 0-10.9 1.2-13.9 3.6-2.9 2.4-4.8 6.4-5.6 12h-18.3v-.1zm55.5 16.6c-1.5.8-3.2 1.5-5.1 2.1-1.9.6-3.5 1-4.7 1.2s-3 .4-5.6.8c-2.5.3-4.2.6-5 .7-2.4.3-4.2.7-5.6.9-1.4.3-3 .8-5 1.4-2 .7-3.5 1.5-4.6 2.5s-2 2.3-2.8 3.9c-.8 1.6-1.2 3.6-1.2 5.8 0 4.2 1.4 7.4 4.1 9.6 2.8 2.3 6.6 3.4 11.6 3.4 8.6 0 15.2-2.3 19.8-6.9 2.6-2.6 3.9-7.6 3.9-15.1v-10.3h.2zM836.1 129.9V144h-17.6v46c0 2.7.1 4.6.2 5.7.1 1.1.4 2.3 1 3.6s1.6 2.2 3 2.6c1.4.5 3.4.7 5.8.7 3.2 0 5.7-.1 7.6-.3v15.2c-3.8.4-8.2.7-13 .7-3.4 0-6.4-.3-8.9-.8s-4.7-1.1-6.4-1.8-3.1-1.8-4.2-3.5c-1.1-1.6-2-3-2.6-4.1s-1.1-3-1.4-5.7c-.3-2.7-.4-4.8-.4-6.2V144h-14.6v-14.1h14.6v-26.3h19.3v26.3h17.6zM937.6 200.2v17.1h-80.9c.1-5.3.8-10.2 2.2-14.6 1.4-4.4 2.9-8.2 4.7-11.3 1.7-3.1 4.3-6.3 7.8-9.5 3.4-3.2 6.5-5.9 9.3-8s6.6-4.8 11.4-8c.3-.2 2-1.3 5-3.3s4.8-3.2 5.5-3.7 2.2-1.7 4.6-3.6c2.4-1.9 3.9-3.4 4.7-4.5.7-1.1 1.7-2.7 3-4.6 1.3-1.9 2.2-3.9 2.6-5.8.4-2 .7-4.1.7-6.3 0-6.2-1.7-11.1-5.2-14.6-3.4-3.6-8.1-5.3-14-5.3-3.4 0-6.3.5-8.8 1.6s-4.4 2.5-5.8 4.1c-1.4 1.7-2.6 3.9-3.5 6.5-.9 2.7-1.5 5.2-1.8 7.5-.3 2.4-.5 5.1-.6 8.3h-18.8v-3c0-12.8 3.6-22.9 10.8-30.4s16.9-11.3 29-11.3c11.5 0 20.8 3.2 27.8 9.7s10.5 15.1 10.5 25.8c0 4.3-.7 8.4-2 12.2-1.4 3.8-2.8 6.9-4.3 9.3-1.5 2.4-4.2 5.1-7.9 8.3s-6.5 5.4-8.3 6.6c-1.8 1.2-5.1 3.5-10 6.8-14.1 9.1-22.6 17.1-25.4 23.9h57.7v.1zM1029.6 172.9v16.3h-15.1v28.1h-18.6l-.2-28.1h-50.3v-19.1l50.8-72.3h18.3V173l15.1-.1zm-33.6 0v-51.3l-34.7 51.3H996z"/></svg>